<?xml version="1.0" encoding="iso-8859-1"?>
<!-- Generator: Adobe Illustrator 19.0.0, SVG Export Plug-In . SVG Version: 6.00 Build 0)  -->
<svg version="1.1" id="Layer_1" xmlns="http://www.w3.org/2000/svg" xmlns:xlink="http://www.w3.org/1999/xlink" x="0px" y="0px"
	 viewBox="0 0 474.616 474.616" style="enable-background:new 0 0 474.616 474.616;" xml:space="preserve">
<circle style="fill:#284A9E;" cx="236.968" cy="236.967" r="236.967"/>
<path style="fill:#24488E;" d="M405.203,70.061c92.546,92.549,92.553,242.591,0,335.148c-92.542,92.542-242.595,92.542-335.144,0
	L405.203,70.061z"/>
<path style="fill:#1E3F77;" d="M466.714,295.104L299.58,127.969l-33.957,33.953l-72.329-9.968l7.472,74.828l-35.199,35.199
	l71.105,71.101l1.239,48.636l78.514,78.51C390.322,433.92,447.309,372.005,466.714,295.104z"/>
<path style="fill:#FFFFFF;" d="M329.061,173.941c-0.984-3.697-2.986-7.633-4.464-11.083c-17.732-42.589-56.456-57.859-87.73-57.859
	c-41.863,0-87.973,28.067-94.128,85.934v11.82c0,0.494,0.168,4.92,0.415,7.139c3.45,27.577,25.205,56.886,41.455,84.46
	c17.482,29.545,35.626,58.604,53.601,87.663c11.079-18.956,22.121-38.162,32.954-56.639c2.952-5.414,6.38-10.832,9.336-16.004
	c1.964-3.442,5.729-6.892,7.45-10.092c17.482-32.011,45.62-64.269,45.62-96.033v-13.051
	C333.57,186.749,329.308,174.685,329.061,173.941z M237.631,233.282c-12.307,0-25.773-6.155-32.423-23.147
	c-0.992-2.705-0.913-8.123-0.913-8.617v-7.637c0-21.661,18.398-31.513,34.398-31.513c19.701,0,34.933,15.757,34.933,35.457
	C273.63,217.529,257.331,233.282,237.631,233.282z"/>
<g>
</g>
<g>
</g>
<g>
</g>
<g>
</g>
<g>
</g>
<g>
</g>
<g>
</g>
<g>
</g>
<g>
</g>
<g>
</g>
<g>
</g>
<g>
</g>
<g>
</g>
<g>
</g>
<g>
</g>
</svg>
